# xmcd
# 
# Track frame offsets:
#   150
#   28923
#   38671
#   57064
#   78808
#   98402
#   115442
#   138886
#   157902
#   177822
#   196355
#   214259
#   227088
#   240315
#   256630
#   274951
# 
# Disc length: 3877 seconds
# 
# Revision: 1
# Processed by: cddbd v1.5.1PL0 Copyright (c) Steve Scherf et al.
# Submitted via: VOLTOCDX V1.0.24 
# 
DISCID=c60f2310
DTITLE=My Artist - My Title
DYEAR=2005
DGENRE=Description of the extended genre
TTITLE0=What Sarah Said
TTITLE1=Brightest
TTITLE2=Elevator Love Letter
TTITLE3=Your Own Disaster
TTITLE4=
TTITLE5=
TTITLE6=
TTITLE7=Reassemble
TTITLE8=Snow Day
TTITLE9=
TTITLE10=
TTITLE11=Classifieds
TTITLE12=Skeptics And True Believers
TTITLE13=
TTITLE14=Slow Down
TTITLE15=
EXTD=Extended CD description
EXTT0=
EXTT1=
EXTT2=
EXTT3=
EXTT4=
EXTT5=
EXTT6=
EXTT7=
EXTT8=
EXTT9=
EXTT10=
EXTT11=
EXTT12=
EXTT13=
EXTT14=
EXTT15=
PLAYORDER=
